<svg width="64" height="64" viewBox="0 0 64 64" fill="none" xmlns="http://www.w3.org/2000/svg" role="img" aria-labelledby="title desc">
  <title id="title">PeakHalla</title>
  <desc id="desc">PeakHalla logo with a premium P monogram</desc>
  <defs>
    <linearGradient id="panel" x1="10" y1="8" x2="56" y2="56" gradientUnits="userSpaceOnUse">
      <stop stop-color="#171127"/>
      <stop offset="1" stop-color="#0C0914"/>
    </linearGradient>
    <linearGradient id="stroke" x1="14" y1="10" x2="50" y2="56" gradientUnits="userSpaceOnUse">
      <stop stop-color="#D8C7FF"/>
      <stop offset="0.52" stop-color="#9B70FF"/>
      <stop offset="1" stop-color="#6D3BE5"/>
    </linearGradient>
    <linearGradient id="pFill" x1="22" y1="18" x2="42" y2="46" gradientUnits="userSpaceOnUse">
      <stop stop-color="#FFFFFF"/>
      <stop offset="0.58" stop-color="#E5DBFF"/>
      <stop offset="1" stop-color="#B99AFF"/>
    </linearGradient>
    <linearGradient id="accent" x1="34" y1="18" x2="48" y2="33" gradientUnits="userSpaceOnUse">
      <stop stop-color="#C9B6FF"/>
      <stop offset="1" stop-color="#8B5CF6"/>
    </linearGradient>
    <filter id="shadow" x="-25%" y="-25%" width="150%" height="150%">
      <feDropShadow dx="0" dy="10" stdDeviation="9" flood-color="#05030A" flood-opacity="0.34"/>
    </filter>
  </defs>

  <g filter="url(#shadow)">
    <rect x="8.5" y="8.5" width="47" height="47" rx="16" fill="url(#panel)"/>
    <rect x="8.5" y="8.5" width="47" height="47" rx="16" stroke="url(#stroke)" stroke-width="1.5"/>
    <path d="M24 18.5V45.5" stroke="url(#pFill)" stroke-width="5.6" stroke-linecap="round"/>
    <path d="M24 19.5H35.2C40.95 19.5 45 23.06 45 28.15C45 33.24 40.95 36.8 35.2 36.8H24" stroke="url(#pFill)" stroke-width="5.6" stroke-linecap="round" stroke-linejoin="round"/>
    <path d="M37.6 19.6C43.2 19.6 47 23.16 47 28.03C47 31.24 45.46 34.02 42.74 35.67" stroke="url(#accent)" stroke-width="2.8" stroke-linecap="round"/>
    <circle cx="43.8" cy="20.3" r="2.35" fill="#EFE8FF"/>
    <path d="M18 48H45.5" stroke="#2A223B" stroke-width="2" stroke-linecap="round" opacity="0.9"/>
  </g>
</svg>
