<?xml version="1.0" encoding="UTF-8"?>
<svg id="Livello_1" data-name="Livello 1" xmlns="http://www.w3.org/2000/svg" viewBox="0 0 63.35 69.95">
  <defs>
    <style>
      .cls-1 {
        fill: #c3924a;
      }
    </style>
  </defs>
  <path class="cls-1" d="M44.82,16.86l-.73,1.26-.63,1.15.52.21-.1.1v.52l-.21.84v.31c.21.21.49.35.84.42,2.79,1.19,5.27.84,7.43-1.05l1.57-1.15,4.4-4.61h.21l.73.63,1.47,1.99c2.02,3.35,3.04,7.02,3.04,10.99l-.11,3.87c-.14,2.02-.63,3.98-1.47,5.86l-1.26,2.93-2.09,4.5-2.3,3.66-4.19,4.92-3.56,2.72-5.03,3.25c-2.65,1.47-5.45,1.99-8.38,1.57l-2.51.1-1.05-.52.1-.1.1-.42.52-1.68,1.15-7.02c.07-1.26-.14-2.27-.63-3.04l-3.25-3.14-1.05.21-13.82,23.77H4.29l15.92-27.54.32-1.47-.21-.21-.42-.31c-2.93-1.61-5.76-1.22-8.48,1.15l-2.83,2.41-3.46,3.87-.42-.42-1.05-1.26c-2.16-3.7-3.39-7.68-3.67-11.94l.31-3.87.73-3.46.84-3.25,2.51-5.86,3.35-5.13,4.08-5.13c1.4-1.68,3.07-3.04,5.03-4.08L23.14.42l2.83-.21,2.83-.21,3.35.42-.21.52v.11l-1.57,7.43c-.14,1.26,0,2.48.42,3.67.63,1.54,1.71,2.76,3.25,3.66l.31.21.31-.42.73-.52,2.41-2.83.42-.31,2.41.73,2.72,1.57,1.78,1.57-.31,1.05Z"/>
</svg>