<?xml version="1.0" encoding="UTF-8"?>
<svg id="Livello_1" data-name="Livello 1" xmlns="http://www.w3.org/2000/svg" viewBox="0 0 59.9 63.88">
  <defs>
    <style>
      .cls-1 {
        fill: #c3924a;
        fill-rule: evenodd;
      }
    </style>
  </defs>
  <path class="cls-1" d="M58.12,29.01l-2.83,27.44c-.7,2.16-1.89,3.56-3.56,4.19l-7.54,1.26c-4.61-13.54-14.49-20.98-29.64-22.3,1.26-6.14,2.51-11.31,3.77-15.5,4.05,3.98,13.19,5.97,27.44,5.97l12.36-1.05h0ZM59.9,17.28l-.52,4.61-.73,2.09-1.05,1.78c-14.31,4.47-27.16,2.86-38.54-4.82L23.46,0l7.54,1.78c8.31,2.44,15.18,7.16,20.63,14.14l8.17-1.26.1,2.62h0ZM41.68,62.31l-14.66,1.47h-.1l-11.2.1-2.41-.21h-.1l-.21-.1h-.21l-6.6-.63c-2.16-.42-3.94-1.15-5.34-2.2l-.84-.94v-1.05c4.54-11.03,9.88-16.55,16.02-16.55,5.65,0,10.79,1.95,15.39,5.86,4.05,3.49,7.47,8.24,10.26,14.24h0Z"/>
</svg>