<?xml version="1.0" encoding="UTF-8"?>
<svg id="Livello_1" data-name="Livello 1" xmlns="http://www.w3.org/2000/svg" viewBox="0 0 64.09 65.96">
  <defs>
    <style>
      .cls-1 {
        fill: #c3924a;
        fill-rule: evenodd;
      }
    </style>
  </defs>
  <path class="cls-1" d="M58.33,3.35l5.76,14.55-.52,3.25-2.09,4.82-2.1,1.78-14.14,5.24-3.77,1.47-.42.42-2.51,2.1-1.36,1.57-.31.52-.94,1.78-2.3,3.67-2.41,3.14-2.72-.1-.63.1-4.4.84c-.98.35-1.92,1.22-2.83,2.62l-.52.84-.63,3.14.73,5.86c.28,1.68.07,2.65-.63,2.93l-2.09,1.47c-2.72,1.05-5.06.77-7.02-.84l-1.36-1.36-.21-.1-1.05-1.57-.1-.31c-.98-2.51-1.36-4.85-1.15-7.02l.94-9.01.94-7.44v-3.77c.07-1.54.03-2.58-.1-3.14l-.1-.42c-.49-1.26-1.68-2.27-3.56-3.04l-2.51-.73h-.1l-1.05-.31-.1-.1-.63-.21-.21-.31-.1-.21.31-1.05,2.09-4.4.31-.32,1.36-1.47c.7-.28,1.36-.7,1.99-1.26l1.15-.42,1.15-.63.73-.21L49.53,0h2.62c1.68.35,3.25,1.01,4.71,1.99l1.47,1.36h0ZM25.13,38.43l1.15,1.47,1.05,1.05c.42,1.05.17,1.75-.73,2.09l-.42.1c-1.19.35-2.48-.07-3.88-1.26l-2.83-1.68-.21.31v.63l.73,1.26.52.52.63.73.21.31h.21l4.92.1h.21c2.3-.91,3.59-2.34,3.87-4.29.07-.91-.07-1.85-.42-2.83l-1.88-1.99-.63-.42-.84.1-.52.42-1.26,1.15-.21,1.26.31.94h0Z"/>
</svg>