<?xml version="1.0" encoding="UTF-8"?>
<svg id="Livello_1" data-name="Livello 1" xmlns="http://www.w3.org/2000/svg" viewBox="0 0 67.86 69.01">
  <defs>
    <style>
      .cls-1 {
        fill: #c3924a;
        fill-rule: evenodd;
      }
    </style>
  </defs>
  <path class="cls-1" d="M54.66,4.08l.31.1c-.07,1.47-.38,2.86-.94,4.19-8.59-2.37-15.11-2.65-19.58-.84h-.21c-3.28,1.26-4.89,4.01-4.82,8.27l-.21.31-1.05,2.2-3.56,2.83-1.78-1.99-1.57-1.36c3.07-1.54,4.12-4.57,3.14-9.11l.1-.42c2.72-4.68,7.5-7.12,14.35-7.33l15.81,3.14h0ZM56.76,2.51h1.05l.52.52v.31l-9.42,34.45-.94-1.05-.42-.21,8.06-28.17.42-2.72-.21-2.93.21-.21h.73ZM63.04.31l.1-.31c1.95.56,3.28,1.4,3.98,2.51h.1l.21.31.31.52.1.21v.42l-.1.31-.1.1c-2.37,2.51-5.55,3.91-9.53,4.19l.31-.63.94-2.51.31-1.68c1.68-.77,2.79-1.92,3.35-3.46h0ZM44.4,35.71l.42.1,5.97,5.44v.21l-6.91.73-1.89.31-.21,1.57c-.42,3-.59,5.41-.52,7.23h-.21l-5.65-5.97.1-.21.32-6.7L15.6,18.74c-.98,0-1.68.42-2.09,1.26l-.1.21-.52.63-.21.52h-.1c-1.61-2.58-2.69-5.27-3.25-8.06l-.63-3.35-.1-.1.1-.11h.1v.11h.1l3.46.42c2.58.56,5.24,1.61,7.96,3.14l-.94.63c-.77.42-1.26,1.22-1.47,2.41l.21.31,19.79,19.48,6.49-.52h0ZM37.38,49.43L3.25,59.58c-.14-.14-.24-.18-.31-.1l-.42-.63-.21-.84.31-.84v-.21l2.83.21,3.04-.52,27.65-8.48.21.1,1.05,1.15h0ZM7.85,25.55c4.68.84,7.71-.28,9.11-3.35l1.47,1.47,1.99,1.88-3.35,3.98-2.41.84c-3.98.07-6.56,1.71-7.75,4.92l-.11.21c-1.61,4.54-1.15,11.06,1.36,19.58l-4.19.94h-.11L.32,40.11l.1-.1c.07-6.77,2.37-11.59,6.91-14.45h.52ZM3.56,61.05l1.78-.52,2.41-.84.73-.42c-.21,3.98-1.5,7.12-3.87,9.43l-.42.1-.1.21-.42-.1-.21.1-.52-.42-.42-.1-.1-.1c-1.05-.77-1.85-2.09-2.41-3.98l.32-.1c1.47-.63,2.55-1.71,3.25-3.25h0Z"/>
</svg>