<?xml version="1.0" encoding="UTF-8"?>
<svg id="Livello_1" data-name="Livello 1" xmlns="http://www.w3.org/2000/svg" viewBox="0 0 66.14 66.87">
  <defs>
    <style>
      .cls-1 {
        fill: #c3924a;
        fill-rule: evenodd;
      }
    </style>
  </defs>
  <path class="cls-1" d="M38.49,7.91c1.95,2.23,3.04,3.84,3.25,4.82l.21.42v.42l-1.05,4.61c-1.61,4.82-4.61,9.46-9.01,13.93-4.4,4.33-8.97,7.26-13.72,8.8l-5.03,1.26-.31-.1h-.1l-.42-.21-4.71-3.04-.42-.84,6.28-.63c5.38-1.26,10.37-4.15,14.97-8.69,4.61-4.68,7.57-9.74,8.9-15.18.56-2.23.7-4.22.42-5.97l.73.42h0ZM42.36,18.59l.73-2.83c2.93,4.68,7.19,8.59,12.78,11.73v.1l-.52,5.55c-.84,5.38-3.46,10.26-7.85,14.66-4.33,4.26-9.15,6.81-14.45,7.64l-4.92.31-.42-.1c-3.56-5.51-7.64-9.63-12.25-12.36l3.25-.94c4.96-1.54,9.74-4.57,14.35-9.11,4.61-4.68,7.71-9.53,9.32-14.56v-.1h0ZM57.34,28.75l8.8,6.49v23.35c-.14,4.89-2.41,7.64-6.81,8.27h-.21l-1.88-.1h-21.26l-6.7-9.32,4.08-.42c5.65-.91,10.75-3.6,15.29-8.06,4.61-4.75,7.36-9.95,8.27-15.6l.42-4.61h0ZM29.69,4.56v-.1c-1.68-1.68-4.26-1.92-7.75-.73-3.84,1.19-7.57,3.6-11.2,7.23s-6.04,7.37-7.23,11.2c-1.19,3.42-.98,6.04.63,7.85h.11c1.75,1.61,4.33,1.85,7.75.73,3.84-1.26,7.58-3.7,11.21-7.33,3.63-3.63,6.07-7.37,7.33-11.2,1.12-3.49.84-6.04-.84-7.64h0ZM35.87,6.13l.1.31.11.42c.35,1.82.24,3.87-.31,6.18v.1c-1.26,5.1-4.08,9.88-8.48,14.35-4.4,4.33-9.11,7.09-14.14,8.27h-.1l-6.39.52h.1l-.73-.1-.42-.21-2.41-1.15-.21-.21-.52-.52-.31-.31-.1-.1C-.05,31.09-.53,27.56.58,23.1c1.26-4.96,4.05-9.6,8.38-13.93C13.36,4.77,18.07,1.91,23.1.58c4.54-1.19,8.1-.56,10.68,1.89v-.1l.94,1.05,1.15,2.62v.1h0Z"/>
</svg>