<?xml version="1.0" encoding="UTF-8"?>
<svg id="svg2" xmlns="http://www.w3.org/2000/svg" viewBox="0 0 79.55 80.74">
  <defs>
    <style>
      .cls-1 {
        fill: #c3924a;
        fill-rule: evenodd;
      }
    </style>
  </defs>
  <path id="path4" class="cls-1" d="M30.16,36.75c-6.32,0-11.28,3.12-14.88,9.35-2.28,4.13-4,9.97-5.14,17.52-2.99-2.63-5.44-6.41-7.38-11.33-1.84-4.74-2.77-9.44-2.77-14.09,0-11.41,4.08-20.81,12.25-28.19,3.6-3.25,7.6-5.75,11.99-7.51,4.39-1.67,8.69-2.5,12.91-2.5,5.44,0,10.32.75,14.62,2.24l5.14,2.37c2.99,1.84,5.27,4.08,6.85,6.72,1.49,2.37,2.24,4.7,2.24,6.98l-.53,7.64-2.24,6.19c-1.23,2.11-2.99,4.17-5.27,6.19-1.4,1.05-3.38,1.76-5.93,2.11l-3.95.53-8.43-1.98-9.48-2.24M36.09,8.56c-3.6,0-7.24.97-10.93,2.9-3.6,1.93-6.67,4.48-9.22,7.64-2.72,3.34-4.52,6.98-5.4,10.93-1.05,4.13-1.01,8.21.13,12.25l.53-1.05c2.55-3.69,5.8-6.63,9.75-8.82l1.05-.4c2.81-1.4,6.15-2.11,10.01-2.11l8.3,1.98c3.51,1.4,6.1,2.11,7.77,2.11,3.25,0,5.88-.92,7.9-2.77.97-.97,1.76-2.2,2.37-3.69l.26-.4c.61-2.2.7-4.3.26-6.32v-.66l-.26-.4c-1.14-2.99-3.03-5.27-5.66-6.85-3.42-2.28-8.12-3.64-14.09-4.08l-2.77-.26M49.39,43.99c6.41,0,11.37-3.12,14.88-9.35,2.28-4.21,4.04-10.1,5.27-17.65,2.9,2.63,5.31,6.41,7.24,11.33,1.84,4.74,2.77,9.44,2.77,14.09,0,11.41-4.08,20.85-12.25,28.32-3.6,3.25-7.6,5.71-11.99,7.38-4.3,1.76-8.56,2.63-12.78,2.63-5.44,0-10.36-.83-14.75-2.5-1.84-.44-3.51-1.19-5-2.24-2.9-1.93-5.18-4.17-6.85-6.72-1.49-2.37-2.24-4.74-2.24-7.11l.53-7.38,2.24-6.19,5.27-6.45c1.4-.88,3.38-1.58,5.93-2.11l3.82-.4c2.72.26,5.53.97,8.43,2.11l9.48,2.24M43.46,71.91c3.69,0,7.38-.97,11.06-2.9,3.51-1.84,6.59-4.35,9.22-7.51,2.63-3.25,4.48-6.85,5.53-10.8.97-4.21.92-8.34-.13-12.38l-.79,1.05c-2.46,3.69-5.66,6.59-9.61,8.69l-1.05.53c-2.81,1.4-6.15,2.11-10.01,2.11-1.93,0-4.65-.66-8.17-1.98-3.69-1.32-6.32-1.98-7.9-1.98-3.25,0-5.88.88-7.9,2.63l-2.5,3.56-.13.66c-.61,2.11-.75,4.21-.4,6.32l.13.4v.26l.13.4c1.23,2.81,3.16,5.09,5.8,6.85,3.34,2.2,7.99,3.51,13.96,3.95l2.77.13"/>
</svg>