<?xml version="1.0" encoding="UTF-8"?>
<svg id="Livello_1" data-name="Livello 1" xmlns="http://www.w3.org/2000/svg" viewBox="0 0 64.19 62.41">
  <defs>
    <style>
      .cls-1 {
        fill: #c3924a;
        fill-rule: evenodd;
      }
    </style>
  </defs>
  <path class="cls-1" d="M58.75,12.04l3.77,5.13.21,1.15c-2.37,2.09-4.82,3.28-7.33,3.56h-2.62l-3.56-.11,1.15-4.19v-.31l2.09-8.8-.52-.52-.63-.84-1.36-2.41-.84-.52-.73-.31-5.76-2.3-3.87-1.15h.84l3.14.73,8.17,1.88.52.21.94.94.1.11,1.05,1.15v.1l1.36,1.57,3.88,4.92h0ZM63.88,19.37l.1.1.1.1v.1l-.1,3.46.21,4.61c-1.47,2.23-3.32,4.64-5.55,7.23l-.21.31-1.05,1.15-1.15,1.57-1.57,1.47-.1.1h-.21l-.31.42-2.09-.21-2.83-.1-.94-.94c-1.33-1.12-3-3.21-5.03-6.28-1.88-2.86-2.9-4.92-3.04-6.18v-.1l.1-.1v-.11l-.21-.21.32-1.05,3.25-.1,4.61.21h.1l.52-.52.1-.1.42-1.57,1.15-.1h3.14c4.82,0,8.24-1.01,10.26-3.04v-.1h0ZM49.95,5.97l.84,1.68.31.73-1.68,7.85-.1.42-1.05,3.46-.21.42c-.49.98-1.12,1.78-1.89,2.41l-.42.42-6.18-.84c-3.7-.7-6.18-1.33-7.43-1.89l-.11-.1-.73-1.26-.21-.84.21-4.19c.28-3.63.8-6.53,1.57-8.69l.1-.1.73-2.83.32-.63c.35-.77.77-1.12,1.26-1.05l.1-.1.21-.21h1.15l3.98,1.26,5.34,1.78h.1l.21.1.1.1.73.31,2.62,1.68.1.1h0ZM37.8,25.13l-.63,3.66-.11.1-3.66,7.54h-.1l-.1.1-.42.94-.21.21h-.42l-.52-.1h-.21l-.52-.1-5.66-1.57-4.61-1.36-1.26-.31h-.11l-.63-.21-.31-.1-.11-.21v-.1l-.42-.1-.21-.1-.21.21h-.1l-2.3-.73-.21-.11v-.1h-.1l-.52-.52-.52-.63-.21-3.14v-.31l-.1-3.46.94-3.46.42-1.05v-.1l1.57-3.14v-.1l.21-.21.21-.31.52-.52.11-.21v-.1l.94-.1h1.05l.11.1h.21l.31-.1.84.42.84.42.42.1.1.1h.11l.1.1,6.7,3.56v.31l.42,1.15.1.1.1.1,2.3.52,5.66,1.78.31.21v.21l-.1.42v.31h0ZM39.58,28.9h.1l3.67,5.55c2.51,3.91,4.19,6.07,5.03,6.49l.21.1h.1l6.18-.42h.11l-3.46,6.18-4.08,8.27-2.51,4.92h-.1l-.1.31-.73.84-3.04,1.26-5.24-.84-1.47-.21-3.25-.52-1.89-.31-1.05-.31,3.98-2.3.21-.21h.1l.84-.52.1-.21-.1-.21-.31-.52.1-.31-.1-.1v-.21l-.31-.42-.52-5.03v-1.26l.11-1.88.1-1.05.42-1.68.1-.1.21-1.05.32-1.26.63-2.09v-.52l.21-.21c1.19-3.84,2.69-7.16,4.5-9.95v-.1l.21-.52h.21l.1.21.21.21h.21ZM27.54.21l.21.1,1.05.63.94.42.31.21,1.68.84c-.84,1.68-1.5,4.33-1.99,7.96l-.73,8.06-.63-.31h-.21l-.94-.31h-.11l-1.36-.63-1.99-1.05-1.05-.52-.21-.1-.63-.42-.42-.21-1.15-.63h-.21l-.52-.1-1.57-.31.31-.73v-.1l.21-.63.1-.31.31-.42v-.21l.1-.1h.1l.1-.1v-.1l.11-.21v-.1l.31-1.89,1.99-3.14v-.1l2.83-4.19.21-.1.52-.31.94-.73.52-.31h.1l.31.1.42.11h0ZM21.05.31h.1l.84.1,1.26.21c-1.61,2.23-3.42,5.62-5.45,10.16l-.84,1.99-.31-.21-.94-2.93-1.36-3.67-.31-1.05v-.1l-.21-.63-.31-.73-.1-.52v-.1l-.1-.21,4.82-1.68,2.09-.52.84-.1h0ZM9.42,18.43l2.09-.84.73-.21v-.1l2.72-.84.31-.1-.1.21-.21.73-1.57,3.04-.73,3.14c.14,3.42.11,5.93-.1,7.54l-.21,1.47-2.62-2.62-1.26-2.2-.21-.31-1.78-3.46-1.68-3.04.94-.52h.21l2.83-1.68.63-.21h0ZM.63,38.12c1.47-.91,2.72-1.57,3.77-1.99l1.67-.63.1-.1.31-.1.84-.1v-.1l3.45-1.26,1.36-.21c-.07.84-.24,1.54-.52,2.09l-.1.31-.1.31-.63,4.08-.42,6.91-.11,1.26.11,1.68.1,1.26-.21-.1-.21-.1-.31-.1-2.93-2.09-1.36-1.47-.52-.63-.52-.32-1.26-1.78-.21-.42-.21-.21-.52-.94v-.1l-1.05-1.99-1.15-2.83.63-.31h0ZM15.71,34.24l.42.21h.94l.42.1.63.31.31.32h.1l.73.21.42.21.73.21.21.21.1.1,2.83.73,7.64,2.2.21.21.63.63v.31l.11.42v.1l-.21,1.89-.31,1.05-.1.94-.31,1.68v.1l-.42,2.2-.84,2.3v.1l-.1.21-.21.31-.1.63v.21l-.31.52-5.97.1-2.83-.21h-.42v-.21l-.21-.1-1.78-.21-1.05-.21h-.52l-.21-.1h-.42l-1.78-.52-.94-.1h-.1l-.31-.1v-.1l-.21-.1-.42-.42h-.1v-.1c-.63-1.05-.63-3.77,0-8.17l.1-.63v-.1c.07-2.16.38-3.87.94-5.13v-.63l.42-.84.63-.11h.1l.21-.21.52-.42h.84ZM31.31,50.47l.42,3.98v.94h.1l.1,1.47-.52.84c-.7.77-1.75,1.36-3.14,1.78l-2.51.63-3.04-.73-9.63-2.93-3.45-1.47-.84-.31-1.89-1.47-1.15-1.26-.31-1.47-.42-1.36.1-.21.31.1.21.1c.21.07.49.24.84.52l2.83,1.89.84.63.42.1.42.21,1.36.42.42.1,9.74,1.15,7.54,1.05.84-2.62-.42.73-.1-.1.63-.84v-.1l.1-.42.11-.94v-.73l.1.21v.1h0Z"/>
</svg>