<?xml version="1.0" encoding="UTF-8"?>
<svg id="Livello_1" data-name="Livello 1" xmlns="http://www.w3.org/2000/svg" viewBox="0 0 66.81 67.23">
  <defs>
    <style>
      .cls-1 {
        fill: #c3924a;
        fill-rule: evenodd;
      }
    </style>
  </defs>
  <path class="cls-1" d="M40.21,0h4.71L13.72,33.51l-2.51-2.3L40.21,0h0ZM66.81,15.18v6.49l-30.58,32.78-3.25-2.93L66.81,15.18h0ZM60,0c4.54,0,6.81,2.27,6.81,6.81v6.39l-34.77,37.38-17.38-16.13L46.7,0h13.3ZM9.01,31.94l3.77,3.46h.1l22.41,21.05.31.1v.1l2.83,2.51-.21,1.05-9.95,2.09-8.9-8.27v-.1l-.21-.1-1.78-1.78-.21-.21-.52-.42-.21-.31-.73-.42-.1-.21-2.83-2.62v-.21h-.21l-8.59-8.06,1.57-9.63v-.52l.63-.21,2.72,2.51.11.21h0ZM14.35,52.15l.84.63v-.1l.31.42v.1l.42.21.21.42,1.15.94-3.56,3.67.1.1-8.06,8.59-1.05.1c-2.58-.49-4.15-1.92-4.71-4.29l6.6-7.12-.11-.1,5.45-5.86,2.2,1.99.21.31h0Z"/>
</svg>