<?xml version="1.0" encoding="UTF-8"?>
<svg id="Livello_1" data-name="Livello 1" xmlns="http://www.w3.org/2000/svg" viewBox="0 0 72.02 72.21">
  <defs>
    <style>
      .cls-1 {
        fill: #c3924a;
      }
    </style>
  </defs>
  <path class="cls-1" d="M55.5,17.03l.31.63-.21-.1.52,2.09.32,1.57.63,2.41.21.73h.1v.52c.35,1.12,1.68,2.79,3.98,5.03l6.07,6.07,1.99,1.89c2.3,1.61,3.07,3.28,2.3,5.03l-.21.31-4.71,4.61-2.83,2.93-.63.63-4.71,4.71-.21.21h-.21c-1.47.63-3.04-.21-4.71-2.51l-1.88-1.88-3.77-3.77-.73-.31-.94-.21-.73-.31h-.21l-2.41-.84-1.78.63-.73.31-.31.31-.63.63-.1.1-3.67,3.67-.42.21-.21.21-1.15.11-.63-.11v.11l-1.57.84-.94.73-.52.63-2.62,1.57c-1.82.63-3.35.42-4.61-.63v-.11l-.21.21-.11-.1-.1.1-.21.21-9.84,10.05-5.45,5.45-.63.63-6.39-6.39.63-.63,5.45-5.45,9.95-9.95.21-.21.11-.1.21-.1-.21-.21c-1.05-1.26-1.26-2.79-.63-4.61l1.57-2.62.63-.52.21-.31.42-.42.94-1.78v-.63l.1-1.15.21-.21.21-.42,3.56-3.67.21-.42.31-.31h.11l.42-.52.31-.73.11-.52v-.42l.31-1.47-.63-1.78v-.21l-.63-1.57v-.42l-.1-.21-.63-.63-.63-.63-2.62-2.62-1.88-1.89c-2.23-1.61-3.11-3.14-2.62-4.61l7.96-7.96L29.43.17c1.61-.56,3.18.28,4.71,2.51l1.78,1.78,6.18,6.18c1.82,1.89,3.28,3.11,4.4,3.67l6.6,1.68,1.26.42v-.21l.84.42h.11l.21.42Z"/>
</svg>