<?xml version="1.0" encoding="UTF-8"?>
<svg id="Livello_1" data-name="Livello 1" xmlns="http://www.w3.org/2000/svg" viewBox="0 0 66.6 63.35">
  <defs>
    <style>
      .cls-1 {
        fill: #c3924a;
        fill-rule: evenodd;
      }
    </style>
  </defs>
  <path class="cls-1" d="M55.71,37.49l1.68.73.52.42c2.09.28,4.01-.49,5.76-2.3h.52l.73.63,1.26,2.72c.42,1.26.52,2.86.31,4.82l-.94,4.19v.21l-.21.42v.1l-.42,1.26h.1l-.1.1-1.05-.42c-1.88-.98-3.39-1.5-4.5-1.57h-1.15c-3.28,0-5.65,1.12-7.12,3.35-.91,1.4-1.36,2.97-1.36,4.71l.21,2.09v.31l.52,1.78.1.42.21.84-1.57.31h-.1l-.42.21h-.21l-4.29.52c-1.95,0-3.53-.28-4.71-.84l-2.62-1.47-.52-.73.1-.52c2.02-1.75,2.93-3.67,2.72-5.76l-.21-1.26-.63-1.57-.21-.21-1.15-2.51-.52-.94-.84-.94h.1l-1.26-1.57c1.81-1.95,6-7.68,12.57-17.17l4.5,5.44,1.47,1.78.1.1.84.73,1.68,1.36.1.21h0ZM56.34,1.78l-.31,1.36c-.35,3.56-1.64,7.75-3.87,12.57l-3.25,6.07-1.15,1.88-.11.21-2.62,3.35-4.19,6.07-3.77,5.45-.73.94-2.93,3.98-.11-.1-2.3,3.04-.84.94-.52.94-1.15,2.51-.21.21-.63,1.57-.21,1.26c-.21,2.09.7,4.01,2.72,5.76l.11.52-.52.73-2.62,1.47-4.71.84-4.29-.52h-.21l-.42-.21h-.11l-1.57-.31.21-.84.1-.42.52-1.78v-.31l.21-2.09c0-1.75-.45-3.32-1.36-4.71-1.47-2.23-3.84-3.35-7.12-3.35h-1.15c-1.12.07-2.62.59-4.5,1.57l-1.05.42-.1-.1h.1l-.42-1.26v-.1l-.21-.42v-.21l-.94-4.19C-.1,42.55,0,40.94.42,39.69l1.26-2.72.73-.63h.52c1.75,1.82,3.67,2.58,5.76,2.3l.52-.42,1.68-.73.1-.21,1.68-1.36.94-.84,1.47-1.78,4.61-5.55,1.15-1.15,2.62-2.93,2.2-2.51,3.87-4.29.52-.52.1-.1.11-.21,3.04-3.35v.1l.63-.73,1.57-1.57c1.82-1.68,3.7-3.11,5.65-4.29,4.26-3.07,8.2-4.96,11.83-5.66l.21-.1,2.2-.42h1.05v.21l-.1,1.57h0ZM29.74,13.72l-3.25,3.35-6.7,7.85-.94-1.26-1.15-1.88-3.25-6.07c-2.23-4.82-3.53-9.01-3.88-12.57l-.31-1.36-.11-1.57v-.21h1.36l.63.1,1.26.31h.1l.11.1c3.63.7,7.57,2.58,11.83,5.66,1.95,1.19,3.84,2.62,5.65,4.29l.73.73-.94,1.26-1.15,1.26h0Z"/>
</svg>