<?xml version="1.0" encoding="UTF-8"?>
<svg id="Livello_1" data-name="Livello 1" xmlns="http://www.w3.org/2000/svg" viewBox="0 0 60.55 60.36">
  <defs>
    <style>
      .cls-1 {
        fill: #c3924a;
        fill-rule: evenodd;
      }
    </style>
  </defs>
  <path class="cls-1" d="M57.2,16.38l-.21.21c-6.91,5.38-15.22,9.91-24.92,13.61-10.96,4.19-21.33,6.39-31.1,6.6h-.31c-.7-3.14-.84-6.28-.42-9.42l.21-1.99.84-3.46.63-1.99.73-1.78v-.1l.11-.21.31-.52.1-.31.11-.21.31-.42.52-1.26v-.1l.31-.31,1.47-2.2-.1.11c3.42-4.82,7.99-8.31,13.72-10.47,6.63-2.58,13.16-2.83,19.58-.73l2.41.84h.1l.31.1.73.42c6.56,2.93,11.41,7.47,14.56,13.61h0ZM60.45,26.33l.1,1.68-.1,6.7-.42,2.41-2.09,5.66v.1l-1.57,3.14-.11.1-.42.73-1.15,1.68c-3.28,4.61-7.78,8.03-13.51,10.26l-2.09.73-.84.42-2.41.42-13.4-.63-2.09-.73-2.41-.94-7.02-4.29c-2.44-2.02-4.57-4.43-6.39-7.22,9.84-.35,20.21-2.62,31.1-6.81,9.56-3.63,17.84-8.1,24.82-13.4h0ZM57.72,21.83l.52,1.57c-6.7,5.03-14.66,9.32-23.88,12.88-10.54,4.05-20.52,6.21-29.95,6.49l-.73-1.47v-.1l-.21-.52-.1-.21c9.42-.49,19.41-2.76,29.95-6.81,9.22-3.56,17.21-7.85,23.98-12.88l.42,1.05h0Z"/>
</svg>