<?xml version="1.0" encoding="UTF-8"?>
<svg id="Livello_1" data-name="Livello 1" xmlns="http://www.w3.org/2000/svg" viewBox="0 0 67.75 67.86">
  <defs>
    <style>
      .cls-1 {
        fill: #c3924a;
        fill-rule: evenodd;
      }
    </style>
  </defs>
  <path class="cls-1" d="M67.75.31l-.1.63-3.56,5.55-1.47,2.2-1.57,1.88-.21.32h-.21l-.84.21-.42.21h-.21l-.52.1-.31.21-1.68.31-5.65.94h-.84l11.1-8.59v-.1l.11-.1h.1l.84-.63.11-.1.31-.1.94-.73,1.47-1.05,2.09-1.47h.52v.31h0ZM4.71,40.73h.1l1.99-.1h.21l.52.21.84.1.21.21.63-.21c.91-.35,1.5-.35,1.78,0l.52.63,1.26-.63h.1l.52-.1.1-.1h1.47l.73.1h.1l3.98,1.05.42.1,2.2.52.42.11,1.36.31,1.36.1,1.99.21h1.36l2.2-.1.42-.1.73-.21h.1l1.26-.31.84-.1.21-.21h.1l.21-.1.94-.21h.73l.21.21.21.1-9.22,12.04-.31.42-.42.63-.63.94-.1.1.42.42c.35.28.35.91,0,1.88l-.21.52.21.21.1.84.1.42.1.31-.1,1.99v.1l-3.04.84-2.72-.1-.42-.31-1.78.42-.11.1c.21.35.14.63-.21.84l-1.88.31h-.31l-2.72-.42-1.26-.63-1.05-.63-.84-.63h-.94l-1.36.73-.94.52-.52.42-.1.1-.94.84-.1.1-2.2,2.3-3.56-3.56,2.3-2.3.84-.73.1-.21.1-.1.31-.63,1.36-2.72-.1-.42h-.1v-.1l-.52-.84-.63-.94-.73-1.36-.42-2.72v-.31l.42-1.99.73-.1v-.21h.1l.1-.63.42-1.05-.31-.42-.1-2.83.84-2.93h0ZM49.32,26.07l.11.1-9.11,11.83-1.99,1.57-1.05.63h-.11l-.31.1-.63.21-1.89.42h-.63l-5.03.21-3.35-.31-3.98-.63h-.52l-1.26-.31h-.31l-.52-.1-.94-.1-.1.1h-1.26l-.42.1-.52-.42-.1-.1v-.1l-.1-.31,14.76-11.31.42-.1.52-.1.52-.1h1.26l.1-.1h1.05l5.34.31.94-.1h.31l6.39-1.05.31-.1.21-.1.21-.1h.1l.42-.21h.94l.21.21h0ZM48.48,14.87h3.56l3.67-.52.52-.1.63-.21,1.15-.63.21-.1.31-.1h.52l.11.31-6.6,8.59-.73.52-1.15.63-.63.31-.52.21-.31.21c-2.37,1.05-4.75,1.64-7.12,1.78l-4.71.11-1.15.1h-1.36l-.63.1-.73.21h-.84l-.1-.1-.21-.21v-.1l.42-.31,5.86-4.5.84-.73.31-.21,4.71-3.56.31-.21.42-.21.63-.63h.1l-.1.1.31-.21.84-.31h.11l.21-.1h.63l.52-.1h0Z"/>
</svg>