<?xml version="1.0" encoding="UTF-8"?>
<svg id="Livello_1" data-name="Livello 1" xmlns="http://www.w3.org/2000/svg" viewBox="0 0 72.46 68.28">
  <defs>
    <style>
      .cls-1 {
        fill: #c3924a;
        fill-rule: evenodd;
      }
    </style>
  </defs>
  <path class="cls-1" d="M63.14,13.4l-7.43-1.05-2.93.1-6.49,1.26c-6.7,3.42-13.54,9.81-20.53,19.16l-.21.1-.21.31-13.93-14.35c5.38-7.26,12.39-12.88,21.05-16.86l.73-.21,4.29-1.05,10.37-.84,9.11,1.68c3.14.84,6.07,2.2,8.8,4.08,2.79,2.02,4.71,4.64,5.76,7.85l.94,5.86c-2.58-2.65-5.69-4.68-9.32-6.07h0ZM9.53,19.48l.11-.1.21-.1,1.57,1.57,11.94,12.88,1.68,1.78.31.21h-.1l.63.52v.42l-.94.84-.63.42-.31.42c-2.86,2.58-4.54,4.36-5.03,5.34l-.31-.42-.1.1-.31-.31L5.34,25.45l-.21-.63.21-.52,4.19-4.82h0ZM4.71,26.91l12.25,17.17.21.52-2.2,4.61-.94,2.3-1.26,2.2-1.67-5.34c-2.93-4.68-6.63-7.75-11.1-9.21v-7.85l2.41-1.99,2.3-2.41h0ZM26.39,38.01l.73.84.1.1.84,1.05,1.68,1.89,4.08,3.88,7.23,7.75c4.82,5.93,7.89,10.86,9.22,14.77h-9.95c-.42-1.68-1.26-3.53-2.51-5.55l-4.4-6.49c-2.44-3.7-6.11-7.61-11-11.73l-.31-.1-.94-.84,4.92-5.24.32-.31h0Z"/>
</svg>