<?xml version="1.0" encoding="UTF-8"?>
<svg id="Livello_1" data-name="Livello 1" xmlns="http://www.w3.org/2000/svg" viewBox="0 0 67.54 66.81">
  <defs>
    <style>
      .cls-1 {
        fill: #c3924a;
      }
    </style>
  </defs>
  <path class="cls-1" d="M67.54,0l-2.09,5.97-3.88,10.68-1.57,2.83-5.24,9.21-1.15,1.89-1.36,1.57c-.77.7-2.58,3.21-5.45,7.54l-4.29,6.28-3.46.11c-5.86-.84-10.19.1-12.98,2.83l-.84,1.05c-2.16,1.26-4.26,2.9-6.28,4.92h-.21l-.42-.1-3.46,3.46-2.2,2.2-6.49,6.39-6.18-6.18,6.39-6.39,2.2-2.3,3.46-3.35.94-.94.21-.84.21-.21,1.15-1.36c3.28-3.28,5.48-7.12,6.6-11.52l.31-1.15c-.35-1.82-.24-4.54.31-8.17l.31-.21v-.31l5.24-3.56,6.49-4.61,2.3-1.36,10.89-7.23,1.78-1.05c4.05-2.02,9.01-3.77,14.87-5.24l3.87-.84Z"/>
</svg>