<?xml version="1.0" encoding="UTF-8"?>
<svg id="Livello_1" data-name="Livello 1" xmlns="http://www.w3.org/2000/svg" viewBox="0 0 62.49 62.58">
  <defs>
    <style>
      .cls-1 {
        fill: #c3924a;
      }
    </style>
  </defs>
  <path class="cls-1" d="M62.39,2.05l-.1.39-.68,2.15c-.46,2.09-1.37,4.24-2.74,6.45l-2.74,3.72-3.23,3.81-.39.49-22.98,23.08-.1.49-.1.19,5.28,2.35,2.83,1.17,1.08.78-.2.29-.1.2-.2.29-.1.2-4.3,4.21-.78.1-1.86-.59-2.44-.78-.2-.1-1.96-.78-2.05-.78-.68-.29-.49-.2-2.15-1.95c-.52.06-1.08.36-1.66.88l-5.48,5.57h-.1l-.1.1c-1.37,1.43-1.99,2.28-1.86,2.54l1.08,1.08v.39l-.2,1.27-1.08,2.25-1.37,1.56h-.88l-.98-.98-.39.1-1.27.19h-.78l-2.15-.49-1.57-1.37-1.17-1.56-.39-1.86v-.78l.19-1.27.2-.29-.98-.98-.1-.98,1.66-1.37,2.25-.98,1.17-.29h.2l.2.1.68.59.29.1.29.2.1-.2.1.1h.2l.19.1.2-.1.1.1,8.41-8.41v-.29l-.2-.19-2.05-2.25-.29-.59-.19-.68-.78-2.05-.88-1.96-.1-.1h.1l-.88-2.54-.59-1.86.1-.78,4.2-4.2.2-.1.39-.29h.1l.39-.2.78.98,1.08,2.83,2.35,5.28h.29l.49-.1,22.98-23.08.49-.39,3.91-3.13,3.62-2.84c1.96-1.17,3.85-1.99,5.67-2.44l3.52-.98,1.76-.29-.1,2.05Z"/>
</svg>